<svg width="182" height="141" viewBox="0 0 182 141" fill="none" xmlns="http://www.w3.org/2000/svg">
<path d="M164.974 111.578V139H151.469H134.893H116.784H91.1534H67.365H48.9481H32.3729H17.0256V111.885C17.0256 76.1154 46.0223 47.1186 81.7915 47.1186H91.1534H100.515C111.407 47.1186 121.668 49.8202 130.665 54.5897C151.073 65.4091 164.974 86.8699 164.974 111.578Z" fill="url(#paint0_linear_72_314)"/>
<path d="M0.757324 139H17.0256M181.243 139H164.974M164.974 139V111.578C164.974 75.9779 136.115 47.1186 100.515 47.1186V47.1186M164.974 139H151.469M17.0256 139V111.885C17.0256 76.1154 46.0223 47.1186 81.7915 47.1186V47.1186M17.0256 139H32.3729M32.3729 139V125.854C32.3729 100.728 39.1602 76.0683 52.0176 54.4809V54.4809M32.3729 139H48.9481M151.469 139V126.497C151.469 100.999 144.231 76.0263 130.596 54.4809V54.4809M151.469 139H134.893M134.893 139V131.038C134.893 102.417 127.941 74.225 114.635 48.8856V48.8856M134.893 139H116.784M48.9481 139V131.038C48.9481 102.417 55.9003 74.225 69.2067 48.8856V48.8856M48.9481 139H67.365M67.365 139V122.146C67.365 99.196 71.3151 76.4169 79.0425 54.8066L81.7915 47.1186M67.365 139H91.1534M81.7915 47.1186H91.1534M116.784 139L115.873 117.152C115.052 97.4679 111.327 78.0133 104.82 59.4182L100.515 47.1186M116.784 139H91.1534M100.515 47.1186H91.1534M91.1534 139V47.1186" stroke="black" stroke-width="3"/>
<path d="M99.6292 26.7987C99.6292 31.2796 95.8249 35.0169 90.9999 35.0169C86.1749 35.0169 82.3706 31.2796 82.3706 26.7987C82.3706 22.3179 86.1749 18.5805 90.9999 18.5805C95.8249 18.5805 99.6292 22.3179 99.6292 26.7987Z" fill="#BCB525" stroke="black" stroke-width="3"/>
<line y1="-1.5" x2="12.1954" y2="-1.5" transform="matrix(0.918089 -0.396375 0.424644 0.90536 107.882 21.3255)" stroke="#BCB525" stroke-width="3"/>
<line y1="-1.5" x2="12.0274" y2="-1.5" transform="matrix(0.716102 -0.697996 0.727043 0.686592 102.971 13.6959)" stroke="#BCB525" stroke-width="3"/>
<line x1="61.2261" y1="30.3051" x2="73.504" y2="30.3051" stroke="#BCB525" stroke-width="3"/>
<line x1="106.654" y1="30.3051" x2="118.932" y2="30.3051" stroke="#BCB525" stroke-width="3"/>
<line y1="-1.5" x2="12.2104" y2="-1.5" transform="matrix(0.93361 0.35829 -0.384814 0.922994 62.4539 17.0805)" stroke="#BCB525" stroke-width="3"/>
<line y1="-1.5" x2="11.9771" y2="-1.5" transform="matrix(0.641305 0.767286 -0.792578 0.60977 71.6622 4.12288)" stroke="#BCB525" stroke-width="3"/>
<line x1="92.8069" x2="92.8069" y2="11.7797" stroke="#BCB525" stroke-width="3"/>
<defs>
<linearGradient id="paint0_linear_72_314" x1="90.9999" y1="47.1186" x2="90.9999" y2="139" gradientUnits="userSpaceOnUse">
<stop stop-color="#7DA990"/>
<stop offset="1" stop-color="#6F6729"/>
</linearGradient>
</defs>
</svg>
