<svg xmlns="http://www.w3.org/2000/svg" width="160" height="126" viewBox="0 0 160 126" fill="none">
  <path d="M144.864 98.5548V124H133.022H118.488H102.608H80.1345H59.2756H43.1268H28.5929H15.1355V98.8239C15.1355 67.4597 40.5613 42.0339 71.9256 42.0339H80.1345H88.3435C119.559 42.0339 144.864 67.3392 144.864 98.5548Z" fill="url(#paint0_linear_72_303)"/>
  <path d="M0.870728 124H15.1355M159.129 124H144.864M144.864 124V98.5548C144.864 67.3392 119.559 42.0339 88.3435 42.0339V42.0339M144.864 124H133.022M15.1355 124V98.8239C15.1355 67.4597 40.5613 42.0339 71.9256 42.0339V42.0339M15.1355 124H28.5929M28.5929 124V112.12C28.5929 89.7936 34.5384 67.8696 45.8183 48.6017V48.6017M28.5929 124H43.1268M133.022 124V112.677C133.022 90.0288 126.682 67.8329 114.72 48.6017V48.6017M133.022 124H118.488M118.488 124V116.755C118.488 91.3051 112.397 66.225 100.724 43.6102V43.6102M118.488 124H102.608M43.1268 124V116.755C43.1268 91.3051 49.2177 66.225 60.8905 43.6102V43.6102M43.1268 124H59.2756M59.2756 124V112.149C59.2756 89.5632 63.1014 67.1404 70.5906 45.8322L71.9256 42.0339M59.2756 124H80.1345M71.9256 42.0339H80.1345M102.608 124L101.922 107.242C101.128 87.8673 97.5202 68.711 91.2126 50.3745L88.3435 42.0339M102.608 124H80.1345M88.3435 42.0339H80.1345M80.1345 124V42.0339" stroke="white" stroke-width="3"/>
  <ellipse cx="80" cy="23.9068" rx="8.88185" ry="8.66949" fill="#FDF105"/>
  <line y1="-1.5" x2="10.723" y2="-1.5" transform="matrix(0.915571 -0.402156 0.418672 0.908137 94.8031 19.0242)" stroke="#FDF105" stroke-width="3"/>
  <line y1="-1.5" x2="10.6359" y2="-1.5" transform="matrix(0.710064 -0.704137 0.721109 0.692821 90.4967 12.218)" stroke="#FDF105" stroke-width="3"/>
  <line x1="53.8927" y1="26.8729" x2="64.6586" y2="26.8729" stroke="#FDF105" stroke-width="3"/>
  <line x1="93.7266" y1="26.8729" x2="104.492" y2="26.8729" stroke="#FDF105" stroke-width="3"/>
  <line y1="-1.5" x2="10.7307" y2="-1.5" transform="matrix(0.931517 0.363698 -0.379193 0.925317 54.9692 15.2373)" stroke="#FDF105" stroke-width="3"/>
  <line y1="-1.5" x2="10.61" y2="-1.5" transform="matrix(0.634788 0.772686 -0.787463 0.616362 63.0437 3.67797)" stroke="#FDF105" stroke-width="3"/>
  <line x1="81.769" x2="81.769" y2="10.5085" stroke="#FDF105" stroke-width="3"/>
  <defs>
    <linearGradient id="paint0_linear_72_303" x1="80" y1="42.0339" x2="80" y2="124" gradientUnits="userSpaceOnUse">
      <stop stop-color="#FF7A00"/>
      <stop offset="1" stop-color="#FFC700"/>
    </linearGradient>
  </defs>
</svg>
