<svg xmlns="http://www.w3.org/2000/svg" width="50" height="43" viewBox="0 0 50 43" fill="none">
  <path d="M8 14.9405V28.4294C8 29.534 8.89543 30.4294 10 30.4294H15.1538C16.2584 30.4294 17.1538 29.534 17.1538 28.4294V15.0751C17.1538 14.1086 16.3703 13.3251 15.4038 13.3251C14.4373 13.3251 13.6538 12.5416 13.6538 11.5751V7.79138H11.2308V11.7097C11.2308 12.6019 10.5075 13.3251 9.61538 13.3251C8.72323 13.3251 8 14.0484 8 14.9405Z" stroke="#53350B" stroke-width="2"/>
  <path d="M9.34615 42H18.2308H25.7692M31.1538 1H6C3.23858 1 1 3.23858 1 6V33.4785C1 36.24 3.23857 38.4785 6 38.4785H31.1538V1Z" stroke="#53350B" stroke-width="2"/>
  <path d="M42.4616 14.3312V7.37035C42.4616 3.99099 39.7221 1.25146 36.3427 1.25146V1.25146C36.0048 1.25146 35.7308 1.52542 35.7308 1.86335V37.8666C35.7308 38.2045 36.0048 38.4785 36.3427 38.4785V38.4785C39.7221 38.4785 42.4616 35.7389 42.4616 32.3596V23.8895M42.4616 14.3312V14.3312C45.9654 16.4356 46.0853 21.4713 42.6856 23.74L42.4616 23.8895M42.4616 14.3312V23.8895" stroke="#53350B" stroke-width="2"/>
  <path d="M24.1539 23.1349V23.1349C26.2356 23.1349 27.9231 21.4474 27.9231 19.3657V16.3435H20.3846V19.3657C20.3846 21.4474 22.0722 23.1349 24.1539 23.1349V23.1349ZM24.1539 23.1349V29.9263M24.1539 29.9263H27.1154M24.1539 29.9263H21.4616" stroke="#53350B" stroke-width="2"/>
</svg>