<svg xmlns="http://www.w3.org/2000/svg" width="50" height="38" viewBox="0 0 50 38" fill="none">
  <path d="M1 23.7849V23.7849C1.76805 24.5505 3.00173 24.5788 3.80405 23.8491L5.83976 21.9979C7.60281 20.3946 10.261 20.2841 12.1511 21.7355L12.9487 22.348C15.1116 24.009 18.1119 24.0403 20.309 22.4249L20.7542 22.0976C23.0939 20.3773 26.2634 20.3163 28.6676 21.9454L29.8969 22.7783C31.9462 24.1669 34.6834 23.9533 36.4925 22.2636V22.2636C38.3727 20.5076 41.2418 20.354 43.2987 21.8992L46.0804 23.9889C46.9689 24.6564 48.2129 24.5695 49 23.7849V23.7849" stroke="#53350B" stroke-width="2"/>
  <path d="M1 29.7088V29.7088C1.76805 30.4744 3.00173 30.5027 3.80405 29.7731L5.83976 27.9218C7.60281 26.3185 10.261 26.208 12.1511 27.6594L12.9487 28.272C15.1116 29.9329 18.1119 29.9642 20.309 28.3488L20.7542 28.0215C23.0939 26.3012 26.2634 26.2402 28.6676 27.8693L29.8969 28.7022C31.9462 30.0908 34.6834 29.8772 36.4925 28.1876V28.1876C38.3727 26.4316 41.2418 26.278 43.2987 27.8232L46.0804 29.9128C46.9689 30.5803 48.2129 30.4934 49 29.7088V29.7088" stroke="#53350B" stroke-width="2"/>
  <path d="M1 35.6329V35.6329C1.76805 36.3985 3.00173 36.4268 3.80405 35.6972L5.83976 33.8459C7.60281 32.2426 10.261 32.1321 12.1511 33.5835L12.9487 34.196C15.1116 35.857 18.1119 35.8883 20.309 34.2729L20.7542 33.9456C23.0939 32.2253 26.2634 32.1643 28.6676 33.7934L29.8969 34.6263C31.9462 36.0149 34.6834 35.8013 36.4925 34.1116V34.1116C38.3727 32.3556 41.2418 32.202 43.2987 33.7472L46.0804 35.8369C46.9689 36.5044 48.2129 36.4175 49 35.6329V35.6329" stroke="#53350B" stroke-width="2"/>
  <path d="M20 19V15.3544M23.5 1V1C21.567 1 20 2.567 20 4.5V7.37975M20 7.37975H30M20 7.37975V11.7089M30 7.37975V4.5C30 2.567 31.567 1 33.5 1V1M30 7.37975V11.7089M30 19V15.3544M30 11.7089H20M30 11.7089V15.3544M20 11.7089V15.3544M20 15.3544H30" stroke="#53350B" stroke-width="2"/>
</svg>