<svg xmlns="http://www.w3.org/2000/svg" width="23" height="23" viewBox="0 0 23 23" fill="none">
  <path d="M20.2755 3.26672H3.14771V20.2725" stroke="#53350B" stroke-width="2"/>
  <path d="M5.34782 18.0903L3.03804 21L1 18.0903" stroke="#53350B" stroke-width="2"/>
  <path d="M18.1015 1.01793L20.9871 3.30701L18.129 5.3606" stroke="#53350B" stroke-width="2"/>
  <ellipse cx="8.91167" cy="18.4739" rx="0.494071" ry="0.49055" fill="#53350B"/>
  <ellipse cx="10.888" cy="18.4739" rx="0.494071" ry="0.49055" fill="#53350B"/>
  <ellipse cx="12.8643" cy="18.4739" rx="0.494071" ry="0.49055" fill="#53350B"/>
  <ellipse cx="14.8406" cy="18.4739" rx="0.494071" ry="0.49055" fill="#53350B"/>
  <ellipse cx="16.8169" cy="18.4739" rx="0.494071" ry="0.49055" fill="#53350B"/>
  <ellipse cx="18.7933" cy="18.4739" rx="0.494071" ry="0.49055" fill="#53350B"/>
  <ellipse cx="18.7933" cy="14.8765" rx="0.494071" ry="0.49055" fill="#53350B"/>
  <ellipse cx="18.7933" cy="16.5117" rx="0.494071" ry="0.49055" fill="#53350B"/>
  <ellipse cx="18.7933" cy="12.9144" rx="0.494071" ry="0.49055" fill="#53350B"/>
  <ellipse cx="18.7933" cy="10.9521" rx="0.494071" ry="0.49055" fill="#53350B"/>
  <ellipse cx="18.7933" cy="8.98994" rx="0.494071" ry="0.49055" fill="#53350B"/>
</svg>