<svg xmlns="http://www.w3.org/2000/svg" width="52" height="38" viewBox="0 0 52 38" fill="none">
  <path d="M29 8.5V6C29 3.23858 26.7614 1 24 1H6C3.23858 1 1 3.23858 1 6V22.5C1 25.2614 3.23858 27.5 6 27.5H22.5M29 8.5V22.5C29 25.2614 26.7614 27.5 24 27.5H22.5M29 8.5H46C48.7614 8.5 51 10.7386 51 13.5V31.5C51 34.2614 48.7614 36.5 46 36.5H27.5C24.7386 36.5 22.5 34.2614 22.5 31.5V27.5" stroke="#53350B" stroke-width="2"/>
  <circle cx="7" cy="7.5" r="1.5" stroke="#53350B"/>
  <circle cx="21" cy="7.5" r="1.5" stroke="#53350B"/>
  <circle cx="21" cy="20.5" r="1.5" stroke="#53350B"/>
  <circle cx="7" cy="20.5" r="1.5" stroke="#53350B"/>
  <circle cx="42" cy="16.5" r="1.5" stroke="#53350B"/>
  <circle cx="32" cy="29.5" r="1.5" stroke="#53350B"/>
</svg>